<svg width="28" height="28" viewBox="0 0 28 28" fill="none" xmlns="http://www.w3.org/2000/svg">
    <path d="M10.856 4.60753H15.9765C16.72 4.60753 17.3227 4.00247 17.3227 3.25615C17.3227 2.50983 16.72 1.90477 15.9765 1.90477H15.3137C15.3137 0.852797 14.4642 0 13.4163 0C12.3683 0 11.5188 0.852797 11.5188 1.90471H10.856C10.1125 1.90471 9.50977 2.50977 9.50977 3.25609C9.50977 4.00241 10.1125 4.60753 10.856 4.60753Z" fill="#C3C3C3"/>
    <path d="M22.9478 5.82556C21.8511 5.82556 20.959 6.72003 20.959 7.81957V8.3858H24.9366V7.81957C24.9366 6.72008 24.0444 5.82556 22.9478 5.82556Z" fill="#C3C3C3"/>
    <path d="M21.3604 22.4331L22.4788 24.3149C22.5774 24.4807 22.756 24.5823 22.9489 24.5823C23.1418 24.5823 23.3205 24.4807 23.4191 24.3148L24.5374 22.433C24.7877 22.0117 24.9252 21.5325 24.9369 21.043H20.9609C20.9726 21.5325 21.1101 22.0117 21.3604 22.4331Z" fill="#C3C3C3"/>
    <path d="M20.959 10.0266H24.9366V19.4025H20.959V10.0266Z" fill="#C3C3C3"/>
    <path d="M21.3034 25.0136L20.185 23.1318C19.7973 22.4793 19.5928 21.7339 19.5928 20.9754V7.81978C19.5928 5.96642 21.0983 4.45868 22.9484 4.45868C23.206 4.45868 23.4565 4.48767 23.6971 4.5429C23.4133 3.32118 22.3179 2.40845 21.0141 2.40845H18.8408C18.9201 2.67696 18.9628 2.96189 18.9628 3.2561C18.9628 4.90603 17.6229 6.24806 15.9763 6.24806H10.8554C9.20872 6.24806 7.86888 4.90603 7.86888 3.2561C7.86888 2.96189 7.91153 2.67696 7.99083 2.40845H5.81755C4.29844 2.40845 3.0625 3.64712 3.0625 5.17017V25.2378C3.0625 26.7608 4.29844 28 5.81766 28H21.0142C22.3447 28 23.4576 27.0496 23.7135 25.7901C23.4762 25.8935 23.2164 25.9498 22.949 25.9498C22.2736 25.9498 21.6485 25.5938 21.3034 25.0136ZM7.39851 14.8793H16.4423C16.8953 14.8793 17.2626 15.2466 17.2626 15.6997C17.2626 16.1527 16.8953 16.52 16.4423 16.52H7.39851C6.94548 16.52 6.5782 16.1527 6.5782 15.6997C6.5782 15.2466 6.94548 14.8793 7.39851 14.8793ZM6.5782 12.9655C6.5782 12.5125 6.94548 12.1452 7.39851 12.1452H15.4969C15.9499 12.1452 16.3172 12.5125 16.3172 12.9655C16.3172 13.4185 15.9499 13.7858 15.4969 13.7858H7.39851C6.94548 13.7858 6.5782 13.4185 6.5782 12.9655ZM7.39851 17.6135H10.3729C10.8259 17.6135 11.1932 17.9808 11.1932 18.4338C11.1932 18.8868 10.8259 19.2541 10.3729 19.2541H7.39851C6.94548 19.2541 6.5782 18.8868 6.5782 18.4338C6.5782 17.9808 6.94548 17.6135 7.39851 17.6135ZM15.4969 24.7224H7.39851C6.94548 24.7224 6.5782 24.3551 6.5782 23.9021C6.5782 23.449 6.94548 23.0818 7.39851 23.0818H15.4969C15.9499 23.0818 16.3172 23.449 16.3172 23.9021C16.3172 24.3551 15.9499 24.7224 15.4969 24.7224ZM17.6758 21.9882H7.39851C6.94548 21.9882 6.5782 21.621 6.5782 21.1679C6.5782 20.7149 6.94548 20.3476 7.39851 20.3476H17.6759C18.1289 20.3476 18.4962 20.7149 18.4962 21.1679C18.4962 21.621 18.1289 21.9882 17.6758 21.9882ZM17.6758 11.0516H7.39851C6.94548 11.0516 6.5782 10.6843 6.5782 10.2313C6.5782 9.77825 6.94548 9.41097 7.39851 9.41097H17.6759C18.1289 9.41097 18.4962 9.77825 18.4962 10.2313C18.4962 10.6843 18.1289 11.0516 17.6758 11.0516Z" fill="#C3C3C3"/>
    </svg>
    