<svg xmlns="http://www.w3.org/2000/svg" xmlns:xlink="http://www.w3.org/1999/xlink" width="34" height="34" viewBox="0 0 34 34"><defs><path id="3tsra" d="M35 284.5a3.5 3.5 0 1 1 7 0 3.5 3.5 0 0 1-7 0zm1.4 0a2.1 2.1 0 1 0 4.2 0 2.1 2.1 0 0 0-4.2 0z"/><path id="3tsrb" d="M43.98 299.98c.08.65-.12 1.29-.54 1.77-.37.4-.85.64-1.37.67l-.74 9.96a.66.66 0 0 1-.66.62h-5.34a.67.67 0 0 1-.66-.62l-.74-9.96c-.52-.03-1-.27-1.37-.67a2.3 2.3 0 0 1-.55-1.77l.89-7.74a3.53 3.53 0 0 1 3.4-3.24h3.4a3.53 3.53 0 0 1 3.4 3.24zm-1.32.15l-.88-7.74c-.14-1.17-1.03-2.06-2.08-2.06h-3.4c-1.05 0-1.94.89-2.08 2.06l-.88 7.74c-.03.27.05.54.22.73.08.08.24.23.49.23h.5c.35 0 .64.27.67.62l.73 9.96h4.1l.73-9.96a.67.67 0 0 1 .67-.62h.51c.24 0 .41-.15.48-.23a.94.94 0 0 0 .22-.73z"/><path id="3tsrc" d="M63.33 281H42.67c-.37 0-.67.3-.67.67 0 .36.3.66.67.66h20v17.34H46c-.37 0-.67.3-.67.66 0 .37.3.67.67.67h17.33c.37 0 .67-.3.67-.67v-18.66c0-.37-.3-.67-.67-.67z"/><path id="3tsrd" d="M46.2 296.69l2.83-4.63 2.03 2.08a.64.64 0 0 0 1-.1l2.17-3.33.74.76c.14.14.32.21.51.2a.71.71 0 0 0 .48-.27l3.91-5.33a.68.68 0 0 0-.13-.94.64.64 0 0 0-.91.14l-3.47 4.72-.77-.79a.67.67 0 0 0-.52-.2.64.64 0 0 0-.48.3l-2.17 3.32-2.05-2.09a.62.62 0 0 0-.53-.19.63.63 0 0 0-.48.31l-3.26 5.33c-.19.31-.1.72.21.92a.64.64 0 0 0 .89-.21z"/></defs><g><g transform="translate(-31 -280)"><use fill="#fff" xlink:href="#3tsra"/><use fill="#fff" fill-opacity="0" stroke="#fff" stroke-miterlimit="50" stroke-width=".3" xlink:href="#3tsra"/></g><g transform="translate(-31 -280)"><use fill="#fff" xlink:href="#3tsrb"/><use fill="#fff" fill-opacity="0" stroke="#fff" stroke-miterlimit="50" stroke-width=".3" xlink:href="#3tsrb"/></g><g transform="translate(-31 -280)"><use fill="#fff" xlink:href="#3tsrc"/><use fill="#fff" fill-opacity="0" stroke="#fff" stroke-miterlimit="50" stroke-width=".3" xlink:href="#3tsrc"/></g><g transform="translate(-31 -280)"><use fill="#fff" xlink:href="#3tsrd"/><use fill="#fff" fill-opacity="0" stroke="#fff" stroke-miterlimit="50" stroke-width=".3" xlink:href="#3tsrd"/></g></g></svg>