<svg width="28" height="28" viewBox="0 0 28 28" fill="none" xmlns="http://www.w3.org/2000/svg">
    <path d="M27.622 9.19567L14.497 0.154C14.1983 -0.0513333 13.804 -0.0513333 13.5042 0.154L0.379167 9.19567C0.141167 9.359 0 9.6285 0 9.91667V26.8333C0 27.4773 0.522667 28 1.16667 28H3.5V14C3.5 13.356 4.02267 12.8333 4.66667 12.8333H23.3333C23.9773 12.8333 24.5 13.356 24.5 14V28H26.8333C27.4773 28 28 27.4773 28 26.8333V9.91667C28 9.6285 27.8588 9.359 27.622 9.19567Z" fill="#C3C3C3"/>
    <path d="M10.791 22.1667V23.0417C10.791 23.5247 10.399 23.9167 9.91602 23.9167C9.43302 23.9167 9.04102 23.5247 9.04102 23.0417V22.1667H6.99935C6.67735 22.1667 6.41602 22.4281 6.41602 22.7501V27.4167C6.41602 27.7387 6.67735 28.0001 6.99935 28.0001H12.8327C13.1547 28.0001 13.416 27.7387 13.416 27.4167V22.7501C13.416 22.4281 13.1547 22.1667 12.8327 22.1667H10.791Z" fill="#C3C3C3"/>
    <path d="M18.959 22.1667V23.0417C18.959 23.5247 18.567 23.9167 18.084 23.9167C17.601 23.9167 17.209 23.5247 17.209 23.0417V22.1667H15.1673C14.8453 22.1667 14.584 22.4281 14.584 22.7501V27.4167C14.584 27.7387 14.8453 28.0001 15.1673 28.0001H21.0007C21.3227 28.0001 21.584 27.7387 21.584 27.4167V22.7501C21.584 22.4281 21.3227 22.1667 21.0007 22.1667H18.959Z" fill="#C3C3C3"/>
    <path d="M14.875 15.1667V16.0417C14.875 16.5247 14.483 16.9167 14 16.9167C13.517 16.9167 13.125 16.5247 13.125 16.0417V15.1667H11.0833C10.7613 15.1667 10.5 15.4281 10.5 15.7501V20.4167C10.5 20.7387 10.7613 21.0001 11.0833 21.0001H16.9167C17.2387 21.0001 17.5 20.7387 17.5 20.4167V15.7501C17.5 15.4281 17.2387 15.1667 16.9167 15.1667H14.875Z" fill="#C3C3C3"/>
    </svg>
    