<svg width="33" height="32" viewBox="0 0 33 32" fill="none" xmlns="http://www.w3.org/2000/svg">
    <path d="M16.5 1.27078C8.37831 1.27078 1.77078 7.87831 1.77078 16C1.77078 24.1217 8.37831 30.7292 16.5 30.7292C24.6217 30.7292 31.2292 24.1217 31.2292 16C31.2292 7.87831 24.6217 1.27078 16.5 1.27078ZM16.5 27.7834C10.0029 27.7834 4.71663 22.4971 4.71663 16C4.71663 9.50294 10.0029 4.21663 16.5 4.21663C22.9971 4.21663 28.2834 9.50294 28.2834 16C28.2834 22.4971 22.9971 27.7834 16.5 27.7834Z" fill="white"/>
    <path d="M16.5001 14.5271C13.5542 14.5271 13.5542 13.605 13.5542 13.0542C13.5542 12.3413 14.5867 11.5812 16.5001 11.5812C18.2455 11.5812 18.5415 12.521 18.5622 13.0807L20.0351 13.0542H21.508C21.508 11.5429 20.527 9.41751 17.973 8.81362V7.18015H15.0271V8.76059C12.124 9.24813 10.6084 11.157 10.6084 13.0542C10.6084 14.7038 11.3743 17.4729 16.5001 17.4729C19.4459 17.4729 19.4459 18.4686 19.4459 18.9458C19.4459 19.5571 18.5327 20.4188 16.5001 20.4188C13.7884 20.4188 13.5704 19.1565 13.5542 18.9458H10.6084C10.6084 20.298 11.582 22.7062 15.0271 23.2468V24.8375H17.973V23.2394C20.8761 22.7519 22.3918 20.843 22.3918 18.9458C22.3918 17.2962 21.6258 14.5271 16.5001 14.5271Z" fill="white"/>
    </svg>
    