<svg width="33" height="32" viewBox="0 0 33 32" fill="none" xmlns="http://www.w3.org/2000/svg">
    <path d="M29.7539 25.0687H26.9636V22.2783C26.9636 22.1249 26.838 21.9993 26.6846 21.9993H25.0103C24.8569 21.9993 24.7313 22.1249 24.7313 22.2783V25.0687H21.941C21.7875 25.0687 21.6619 25.1942 21.6619 25.3477V27.0219C21.6619 27.1754 21.7875 27.301 21.941 27.301H24.7313V30.0913C24.7313 30.2448 24.8569 30.3703 25.0103 30.3703H26.6846C26.838 30.3703 26.9636 30.2448 26.9636 30.0913V27.301H29.7539C29.9074 27.301 30.033 27.1754 30.033 27.0219V25.3477C30.033 25.1942 29.9074 25.0687 29.7539 25.0687ZM11.669 15.5257C11.6376 15.2222 11.6201 14.9153 11.6201 14.6049C11.6201 14.0503 11.6725 13.5096 11.7701 12.983C11.7945 12.8574 11.7283 12.7283 11.6132 12.676C11.1388 12.4633 10.7028 12.1703 10.3261 11.8006C9.88225 11.3702 9.53296 10.852 9.30054 10.2791C9.06813 9.70613 8.9577 9.09105 8.97629 8.47306C9.00768 7.35343 9.45762 6.28961 10.2424 5.48739C11.1039 4.60494 12.2619 4.1236 13.4932 4.13755C14.6058 4.14802 15.6801 4.57703 16.4928 5.3374C16.7683 5.59551 17.0055 5.88152 17.2043 6.18846C17.2741 6.29659 17.4101 6.34193 17.5287 6.30008C18.1426 6.08731 18.7913 5.93733 19.4575 5.86757C19.6529 5.84664 19.7645 5.63737 19.6773 5.46297C18.5437 3.22022 16.2277 1.67158 13.549 1.62972C9.68434 1.57043 6.46148 4.74097 6.46148 8.6056C6.46148 10.796 7.4695 12.7493 9.04954 14.0293C7.94037 14.5421 6.9184 15.2501 6.03247 16.1361C4.12108 18.044 3.03982 20.5623 2.97006 23.2515C2.96913 23.2887 2.97566 23.3257 2.98926 23.3604C3.00287 23.395 3.02327 23.4266 3.04928 23.4533C3.07528 23.4799 3.10636 23.5011 3.14067 23.5156C3.17499 23.53 3.21186 23.5375 3.24909 23.5375H5.20583C5.35581 23.5375 5.48137 23.4189 5.48486 23.2689C5.55113 21.2459 6.3708 19.3519 7.81132 17.9149C8.83677 16.8895 10.0924 16.1779 11.4632 15.8326C11.5957 15.7942 11.6864 15.6652 11.669 15.5257ZM27.3821 14.6049C27.3821 10.7891 24.3162 7.68827 20.5144 7.62898C16.6498 7.56968 13.4304 10.7402 13.4304 14.6049C13.4304 16.7953 14.4419 18.7485 16.0184 20.0286C14.8978 20.5481 13.8776 21.2612 13.0049 22.1353C11.0935 24.0432 10.0122 26.5615 9.94245 29.2472C9.94152 29.2845 9.94805 29.3215 9.96165 29.3561C9.97526 29.3908 9.99566 29.4224 10.0217 29.4491C10.0477 29.4757 10.0787 29.4969 10.1131 29.5113C10.1474 29.5258 10.1842 29.5332 10.2215 29.5332H12.1747C12.3247 29.5332 12.4503 29.4146 12.4538 29.2647C12.52 27.2417 13.3397 25.3477 14.7802 23.9107C16.2835 22.4074 18.2786 21.5807 20.4063 21.5807C24.257 21.5807 27.3821 18.459 27.3821 14.6049ZM23.5629 17.7614C22.7188 18.6055 21.5991 19.0694 20.4063 19.0694C19.2134 19.0694 18.0938 18.6055 17.2497 17.7614C16.8285 17.3424 16.4957 16.8431 16.271 16.2931C16.0463 15.7431 15.9343 15.1536 15.9417 14.5595C15.9522 13.4155 16.4091 12.3098 17.2078 11.4901C18.0449 10.6321 19.1646 10.1542 20.3609 10.1403C21.5433 10.1298 22.6909 10.5902 23.5349 11.4169C24.4 12.2645 24.8743 13.398 24.8743 14.6049C24.8708 15.7977 24.4069 16.9174 23.5629 17.7614Z" fill="white"/>
    </svg>
    