<svg
width="12"
height="13"
viewBox="0 0 12 13"
fill="none"
xmlns="http://www.w3.org/2000/svg"
>
<path
  d="M4.10845 10.5631H4.45309C4.82356 10.5631 5.12494 10.2618 5.12494 9.89128C5.12494 9.5208 4.82356 9.21942 4.45309 9.21942H4.10845V10.5631ZM2.43443 7.88998C2.43443 8.26072 2.73574 8.56203 3.10609 8.56203H3.45099V7.21832H3.10609C2.73574 7.21832 2.43443 7.51963 2.43443 7.88998ZM7.68284 9.02291C7.68284 11.1411 5.95958 12.8644 3.84145 12.8644C1.72326 12.8644 0 11.1411 0 9.02291C0 6.90478 1.72326 5.18152 3.84145 5.18152C5.95958 5.18152 7.68284 6.90478 7.68284 9.02291ZM4.10845 8.56196V7.21826H5.45367C5.63526 7.21826 5.7824 7.07112 5.7824 6.88953C5.7824 6.70794 5.63526 6.5608 5.45367 6.5608H4.10845V6.30741C4.10845 6.12582 3.96131 5.97869 3.77972 5.97869C3.59813 5.97869 3.45099 6.12582 3.45099 6.30741V6.5608H3.10609C2.37322 6.5608 1.77697 7.15698 1.77697 7.89031C1.77697 8.62317 2.37316 9.21942 3.10609 9.21942H3.45099V10.5631H2.1057C1.92411 10.5631 1.77697 10.7103 1.77697 10.8919C1.77697 11.0734 1.92411 11.2206 2.1057 11.2206H3.45099V11.5821C3.45099 11.7636 3.59813 11.9108 3.77972 11.9108C3.96131 11.9108 4.10845 11.7636 4.10845 11.5821V11.2206H4.45309C5.18602 11.2206 5.7824 10.6243 5.7824 9.89128C5.7824 9.15828 5.18608 8.56196 4.45309 8.56196H4.10845Z"
  fill="white"
></path>
<path
  d="M11.9718 5.00108C11.9191 5.11995 11.8013 5.19661 11.6713 5.19661L9.62788 5.1966L9.62788 12.5357C9.62788 12.7173 9.48074 12.8644 9.29915 12.8644L6.14487 12.8644C7.4586 12.0779 8.34032 10.6411 8.34032 9.00183C8.34032 6.52118 6.32219 4.50299 3.84147 4.50299C3.65811 4.50299 3.47764 4.51535 3.29993 4.53671L7.31383 0.107955C7.37616 0.0392505 7.46465 3.64092e-07 7.55742 3.72202e-07C7.65019 3.80312e-07 7.73868 0.0392506 7.80101 0.108021L11.9149 4.64717C12.0022 4.74342 12.0245 4.88221 11.9718 5.00108Z"
  fill="white"
></path>
</svg>